<svg width="24" height="24" viewBox="0 0 24 24" xmlns="http://www.w3.org/2000/svg">
  <circle cx="12" cy="12" r="12" fill="#0033CC"/>
  <path d="M12 6.5a5.5 5.5 0 0 0-4.7 8.4L6.5 17.5l2.7-.8A5.5 5.5 0 1 0 12 6.5Z" fill="none" stroke="#FFD400" stroke-width="1.3"/>
  <path d="M9.8 10.2c.2-.4.5-.4.7-.4h.5c.2 0 .4 0 .5.4.2.4.5 1.1.5 1.2.1.1.1.3 0 .4-.1.2-.2.3-.3.4l-.4.4c-.1.1-.2.3-.1.5.2.4.6.9 1.1 1.3.5.5 1 .7 1.3.9.2.1.3.1.4 0l.4-.5c.1-.2.3-.2.5-.1l1.1.5c.2.1.3.1.4.2 0 .1 0 .6-.2 1.1-.2.5-1 .9-1.4.9-.4 0-1.5-.2-2.8-1.3-1.5-1.3-2.4-2.9-2.5-3.1-.1-.2-.7-1-.7-1.9 0-.9.5-1.4.6-1.6Z" fill="#FFD400"/>
</svg>
